<svg width="309" height="158" viewBox="0 0 309 158" fill="none" xmlns="http://www.w3.org/2000/svg">
<path d="M83.5508 90.2V156.97H124.181V143.98H97.3308V90.2H83.5508Z" fill="#0042C6"/>
<path d="M154.43 90.2H140.65V156.97H154.43V90.2Z" fill="#0042C6"/>
<path d="M141.721 0.75V67.24H182.271V54.28H155.581V0.75H141.721Z" fill="#0042C6"/>
<path d="M194.65 0.75V67.24H235.2V54.28H208.37V0.75H194.65Z" fill="#0042C6"/>
<path d="M81.5996 0.75V67.24H124.99V54.28H95.3096V40.25H124.99V27.29H95.3096V13.71H124.99V0.75H81.5996Z" fill="#0042C6"/>
<path d="M274.829 0C255.919 0 240.529 15.38 240.529 34.29C240.529 53.2 255.919 68.58 274.829 68.58C293.739 68.58 309.119 53.2 309.119 34.29C309.129 15.39 293.739 0 274.829 0ZM296.309 34.45C296.309 46.29 286.669 55.93 274.829 55.93C262.989 55.93 253.349 46.29 253.349 34.45C253.349 22.61 262.989 12.97 274.829 12.97C286.669 12.97 296.309 22.6 296.309 34.45Z" fill="#0042C6"/>
<path d="M294.58 103.16V90.2H251.18V156.68H294.58V143.72H264.89V129.7H294.58V116.74H264.89V103.16H294.58Z" fill="#0042C6"/>
<path d="M65.4698 0.75H51.7598L51.9098 67.24H65.6198L65.4698 0.75Z" fill="#0042C6"/>
<path d="M19.5909 0.75H5.88086V67.24H19.5909V0.75Z" fill="#0042C6"/>
<path d="M29.1709 27.1099C43.3809 27.1099 51.9109 40.8899 51.9109 40.8899H5.88086V27.1099H29.1709Z" fill="#0042C6"/>
<path d="M41.92 90.2H29.66L0 156.97H14.74L35.54 108.66L56.5 156.97H71.5L41.92 90.2Z" fill="#0042C6"/>
<path d="M27.9205 129.74C42.1305 129.74 50.6605 143.52 50.6605 143.52H7.81055L14.2505 129.74H27.9205Z" fill="#0042C6"/>
<path d="M221.54 134.3C217.77 140.97 210.67 145.26 202.87 145.26C191.02 145.26 181.39 135.62 181.39 123.78C181.39 111.93 191.03 102.3 202.87 102.3C210.52 102.3 217.54 106.47 221.36 112.96H235.43C230.85 98.9201 217.85 89.3401 202.87 89.3401C183.96 89.3401 168.57 104.72 168.57 123.63C168.57 142.54 183.96 157.92 202.87 157.92C217.85 157.92 230.85 148.34 235.43 134.3H221.54Z" fill="#0042C6"/>
</svg>
