<svg width="407" height="156" viewBox="0 0 407 156" fill="none" xmlns="http://www.w3.org/2000/svg">
<g id="logo/rabbit-leap">
<path id="Vector" d="M323.166 15.5443C320.378 17.229 316.963 18.7605 313.042 19.4956C301.556 21.655 287.727 19.5875 270.375 22.5586C253.038 25.545 232.118 38.7465 232.118 38.7465C232.118 38.7465 244.799 46.4652 258.613 48.6247C272.442 50.7841 284.296 50.9832 299.718 41.978C308.54 36.7709 312.277 33.861 314.145 36.9546L325.631 33.8304" fill="#00247F"/>
<path id="Vector_2" d="M309.688 41.7942C312.491 38.7158 317.484 33.6925 316.213 29.098C314.972 25.4071 311.894 26.862 294.282 29.7872C276.669 32.7124 265.658 28.3017 253.513 21.364C241.353 14.4263 232.271 2.69502 232.271 2.69502C232.271 2.69502 256.515 -2.19046 273.775 1.19415C291.05 4.57876 303.226 11.4399 314.727 13.5074C326.229 15.5749 327.439 12.1903 331.987 9.70928C336.474 7.16699 342.616 5.83459 347.976 6.09494C353.336 6.3553 361.116 8.71381 364.838 12.2822C368.559 15.8506 393.461 42.0392 393.461 42.0392L393.033 50.4165C392.711 56.7569 387.427 61.5352 382.021 64.0468C378.744 65.5783 375.099 66.2062 371.515 66.3594C367.839 66.5125 343.826 63.5874 340.364 82.5779" fill="#0042C6"/>
<path id="Vector_3" d="M295.308 106.607C313.333 105.642 384.778 106.255 384.778 106.255L405.698 119.456C410.997 104.341 393.921 91.5066 383.185 90.4039C372.449 89.3013 322.859 81.9194 322.859 81.9194" fill="#00247F"/>
<path id="Vector_4" d="M158.254 50.4778C155.114 55.2714 148.988 57.4768 143.353 55.4246C136.798 53.0354 133.413 45.7761 135.802 39.2213L28.5821 39.0835C28.5821 39.0835 29.6082 60.5857 53.5455 60.5245C65.3534 60.4938 75.3847 60.4938 94.8041 60.5551C98.1274 60.5857 101.512 61.183 104.805 62.3776C112.432 65.1496 118.251 70.6936 121.544 77.4475L121.575 77.4781C131.376 97.5561 149.647 111.049 171.379 115.812" fill="#00247F"/>
<path id="Vector_5" d="M128.941 118.354C124.944 108.414 123.627 96.5912 125.786 84.3852C130.963 55.1795 154.196 34.8719 177.673 39.0375C195.27 42.1618 208.012 58.1659 211.106 78.2898" fill="#0042C6"/>
<path id="Vector_6" d="M126.414 81.322C125.112 86.912 120.089 91.0623 114.116 91.0623C107.133 91.0623 101.481 85.4111 101.481 78.4275L0.509766 115.015C0.509766 115.015 9.00958 134.848 31.4766 126.593C42.5494 122.519 51.9987 119.089 70.2542 112.503C73.3937 111.401 76.763 110.788 80.2702 110.788C88.3871 110.788 95.7536 114.004 101.16 119.227L101.206 119.242C129.385 146.426 175.055 145.706 209.054 115.474C220.54 105.275 229.361 92.8848 235.35 79.5302" fill="#0042C6"/>
<path id="Vector_7" d="M367.702 37.2304C367.579 40.3699 364.945 42.805 361.805 42.6978C358.666 42.5753 356.215 39.9411 356.338 36.8016C356.46 33.662 359.095 31.2116 362.234 31.3341C365.374 31.4413 367.824 34.0908 367.702 37.2304Z" fill="white"/>
<path id="Vector_8" d="M276.026 130.407C296.426 131.065 376.814 138.692 376.814 138.692L399.097 155.6C406.54 139.09 388.561 122.979 376.569 120.697C364.593 118.415 309.459 105.275 309.459 105.275" fill="#0042C6"/>
<path id="Vector_9" d="M180.354 79.7294C181.104 80.5871 181.87 81.4447 182.635 82.3023C228.58 133.056 292.291 145.706 324.958 110.528C346.368 87.4635 349.109 49.5436 335.479 11.8688L324.284 18.2857C314.681 46.1743 284.817 66.5126 249.47 66.5126C228.289 66.5126 209.084 59.2227 195.025 47.3689L180.354 79.7294Z" fill="#0042C6"/>
<path id="Vector_10" d="M175.07 19.4802C168.163 21.7009 163.17 28.1791 163.17 35.8213C163.17 45.3166 170.858 53.0047 180.354 53.0047C185.852 53.0047 190.737 50.4012 193.892 46.3886C185.361 38.9149 178.837 29.7413 175.07 19.4802Z" fill="#0042C6"/>
<path id="Vector_11" d="M280.85 79.1779C280.069 80.495 278.354 80.9238 277.037 80.1428C275.72 79.3464 275.291 77.6464 276.072 76.3293C276.853 75.0122 278.568 74.5834 279.886 75.3645C281.203 76.1609 281.647 77.8608 280.85 79.1779Z" fill="#6CCEFF"/>
<path id="Vector_12" d="M245.794 85.641C245.013 86.9581 243.298 87.387 241.981 86.6059C240.664 85.8248 240.235 84.1096 241.016 82.7925C241.797 81.4754 243.513 81.0466 244.83 81.8276C246.147 82.6087 246.591 84.324 245.794 85.641Z" fill="#6CCEFF"/>
<path id="Vector_13" d="M318.985 81.8733C318.204 83.1904 316.488 83.6193 315.171 82.8382C313.854 82.0571 313.425 80.3419 314.206 79.0248C314.987 77.7077 316.703 77.2789 318.02 78.0599C319.337 78.8563 319.766 80.5563 318.985 81.8733Z" fill="#6CCEFF"/>
<path id="Vector_14" d="M318.204 47.9354L317.897 53.9848L317.821 55.3019L317.132 55.9605L313.931 58.9775L318.035 60.5397L318.923 60.8766L319.49 62.0711L322.078 67.5539L322.385 61.5045L322.461 60.1874L323.15 59.5289L326.351 56.5118L322.247 54.9497L321.358 54.6128L320.792 53.4182L318.204 47.9354Z" fill="#6CCEFF"/>
<path id="Vector_15" d="M214.843 93.2984L221.321 90.0057L222.73 89.2859L223.833 89.6228L228.871 91.139L228.044 85.9472L227.861 84.8139L228.779 83.4968L232.915 77.5393L226.452 80.832L225.027 81.5518L223.925 81.2149L218.886 79.6987L219.713 84.9058L219.897 86.0391L218.978 87.3409L214.843 93.2984Z" fill="#6CCEFF"/>
<path id="Vector_16" d="M268.415 97.8317L266.944 90.7103L266.623 89.1634L267.251 88.1833L270.038 83.7266L264.816 83.1447L263.667 83.0221L262.656 81.7969L258 76.2223L259.455 83.3284L259.777 84.8906L259.164 85.8707L256.362 90.3274L261.599 90.9094L262.748 91.0319L263.759 92.2571L268.415 97.8317Z" fill="#6CCEFF"/>
<path id="Vector_17" d="M211.106 76.5898C209.942 77.6006 208.196 77.4781 207.185 76.3141C206.175 75.1502 206.297 73.4043 207.461 72.3935C208.625 71.3827 210.371 71.5052 211.382 72.6692C212.392 73.8331 212.27 75.579 211.106 76.5898Z" fill="#6CCEFF"/>
<path id="Vector_18" d="M181.395 57.7523L183.6 64.6594L184.09 66.1756L183.585 67.2017L181.272 71.934L186.541 71.9646H187.689L188.838 73.0673L194.06 78.1212L191.84 71.1989L191.365 69.6827L191.855 68.6566L194.168 63.9243L188.915 63.8936H187.751L186.617 62.7909L181.395 57.7523Z" fill="#6CCEFF"/>
<path id="Vector_19" d="M302.95 63.7559L298.233 69.2693L297.191 70.4791L296.058 70.6017L290.805 71.1224L293.562 75.6097L294.159 76.5898L293.822 78.1519L292.275 85.2428L297.008 79.7141L298.034 78.5195L299.182 78.397L304.42 77.8763L301.663 73.389L301.066 72.4088L301.403 70.8467L302.95 63.7559Z" fill="#6CCEFF"/>
<path id="Vector_20" d="M168.745 55.7308C167.596 56.7416 165.835 56.6191 164.824 55.4551C163.813 54.2912 163.936 52.5453 165.1 51.5345C166.264 50.5237 168.01 50.6462 169.02 51.8102C170.016 52.9588 169.893 54.72 168.745 55.7308Z" fill="#6CCEFF"/>
<path id="Vector_21" d="M163.369 65.9458L157.58 64.154L156.324 63.7558L155.85 62.9135L153.736 59.0847L151.194 62.6684L150.642 63.4495L149.341 63.7098L143.398 64.8585L149.187 66.6503L150.443 67.0485L150.918 67.8755L153.032 71.7196L155.574 68.1359L156.125 67.3548L157.427 67.0944L163.369 65.9458Z" fill="#6CCEFF"/>
<path id="Vector_22" d="M169.25 93.8344L170.843 87.9994L171.18 86.713L172.007 86.2229L175.759 83.9563L172.083 81.5671L171.287 81.0311L170.981 79.7447L169.618 73.8484L168.025 79.6987L167.688 80.9699L166.861 81.4599L163.109 83.7419L166.784 86.131L167.581 86.6517L167.887 87.9382L169.25 93.8344Z" fill="#6CCEFF"/>
<path id="Vector_23" d="M146.063 85.3194C144.899 86.3302 143.153 86.2077 142.143 85.0437C141.132 83.8798 141.254 82.1339 142.418 81.1231C143.582 80.1123 145.328 80.2348 146.339 81.3988C147.334 82.5627 147.212 84.3239 146.063 85.3194Z" fill="#6CCEFF"/>
</g>
</svg>
